<svg fill="#555555"
  height="512pt" viewBox="0 -20 512.001 512" width="512pt" xmlns="http://www.w3.org/2000/svg">
<path d="m471.484375 131.015625h-75.664063v-91.546875c0-21.765625-17.703124-39.46875-39.46875-39.46875h-316.882812c-21.765625 0-39.46875 17.703125-39.46875 39.46875v183.855469c0 21.765625 17.703125 39.46875 39.46875 39.46875h114.558594l-3.683594 63.351562h-23.335938c-8.671874 0-15.707031 7.035157-15.707031 15.707031 0 8.675782 7.035157 15.703126 15.707031 15.703126h141.808594c8.667969 0 15.703125-7.027344 15.703125-15.703126 0-8.671874-7.035156-15.707031-15.703125-15.707031h-23.347656l-3.6875-63.351562h56.085938v169.09375c0 22.339843 18.175781 40.515625 40.519531 40.515625h133.097656c22.339844 0 40.515625-18.175782 40.515625-40.515625 0-6.996094 0-253.371094 0-260.367188 0-22.339843-18.175781-40.503906-40.515625-40.503906zm-289.671875 195.128906 3.6875-63.351562h24.820312l3.6875 63.351562zm116.054688-154.621093v59.863281c-9.492188 0-242.496094 0-258.398438 0-4.449219 0-8.058594-3.613281-8.058594-8.0625v-183.855469c0-4.449219 3.609375-8.0625 8.058594-8.0625h316.882812c4.449219 0 8.058594 3.613281 8.058594 8.0625v91.546875h-26.023437c-22.34375 0-40.519531 18.164063-40.519531 40.507813zm182.722656 260.363281c0 5.027343-4.082032 9.109375-9.105469 9.109375h-133.097656c-5.027344 0-9.109375-4.082032-9.109375-9.109375v-14.195313h151.3125zm0-45.605469h-151.3125c0-17.730469 0-149.980469 0-169.65625h151.3125zm0-201.066406c-56.867188 0-98.808594 0-151.3125 0v-13.691406c0-5.015626 4.082031-9.097657 9.109375-9.097657h133.097656c5.023437 0 9.109375 4.082031 9.109375 9.097657v13.691406zm0 0"/><path d="m434.09375 58.972656h15.640625c9.742187 0 17.667969 7.925782 17.667969 17.667969v18.449219c0 8.671875 7.03125 15.703125 15.707031 15.703125 8.671875 0 15.703125-7.03125 15.703125-15.703125v-18.449219c0-27.058594-22.015625-49.078125-49.078125-49.078125h-15.640625c-8.671875 0-15.703125 7.03125-15.703125 15.707031 0 8.671875 7.03125 15.703125 15.703125 15.703125zm0 0"/><path d="m246.921875 422.042969h-15.640625c-9.742188 0-17.667969-7.929688-17.667969-17.671875v-18.445313c0-8.675781-7.03125-15.707031-15.707031-15.707031-8.671875 0-15.703125 7.03125-15.703125 15.707031v18.445313c0 27.0625 22.015625 49.078125 49.078125 49.078125h15.640625c8.671875 0 15.703125-7.03125 15.703125-15.703125 0-8.675782-7.03125-15.703125-15.703125-15.703125zm0 0"/><path d="m76.960938 155.449219c-8.679688 0-15.703126 7.027343-15.703126 15.707031v14.644531c0 8.667969 7.023438 15.703125 15.703126 15.703125 8.667968 0 15.703124-7.035156 15.703124-15.703125v-14.644531c0-8.679688-7.035156-15.707031-15.703124-15.707031zm0 0"/><path d="m124.585938 155.449219c-8.679688 0-15.703126 7.027343-15.703126 15.707031v14.644531c0 8.667969 7.023438 15.703125 15.703126 15.703125 8.667968 0 15.703124-7.035156 15.703124-15.703125v-14.644531c0-8.679688-7.035156-15.707031-15.703124-15.707031zm0 0"/><path d="m434.097656 322.816406h14.644532c8.671874 0 15.707031-7.035156 15.707031-15.703125 0-8.679687-7.035157-15.707031-15.707031-15.707031h-14.644532c-8.679687 0-15.707031 7.027344-15.707031 15.707031 0 8.667969 7.027344 15.703125 15.707031 15.703125zm0 0"/><path d="m434.097656 370.441406h14.644532c8.671874 0 15.707031-7.035156 15.707031-15.703125 0-8.679687-7.035157-15.707031-15.707031-15.707031h-14.644532c-8.679687 0-15.707031 7.027344-15.707031 15.707031 0 8.667969 7.027344 15.703125 15.707031 15.703125zm0 0"/><path d="m362.242188 372.746094c8.671874 0 15.707031-7.035156 15.707031-15.703125 0-14.050781 0-96.96875 0-110.664063 0-8.667968-7.042969-15.703125-15.707031-15.703125-8.105469 0-15.703126 6.222657-15.703126 16.414063v109.953125c0 8.667969 7.027344 15.703125 15.703126 15.703125zm0 0"/><path d="m163.660156 77.621094h75.703125c8.667969 0 15.707031-7.035156 15.707031-15.703125 0-8.679688-7.039062-15.707031-15.707031-15.707031h-75.703125c-8.679687 0-15.707031 7.027343-15.707031 15.707031 0 8.667969 7.027344 15.703125 15.707031 15.703125zm0 0"/><path d="m293.785156 94.140625h-191.757812c-8.671875 0-15.707032 7.027344-15.707032 15.703125 0 8.671875 7.035157 15.707031 15.707032 15.707031h191.757812c8.679688 0 15.703125-7.035156 15.703125-15.707031 0-8.675781-7.023437-15.703125-15.703125-15.703125zm0 0"/>
</svg>
