<svg fill="#555555"
  height="511pt" viewBox="0 -17 511.99967 511" width="511pt" xmlns="http://www.w3.org/2000/svg">
<path d="m502.703125 217.246094-77.300781-72.054688v-99.925781c0-18.785156-15.285156-34.070313-34.070313-34.070313h-39.5c-18.792969 0-34.078125 14.511719-34.078125 32.351563v1.292969l-37.570312-35.023438s-.003906 0-.003906-.003906c-13.332032-12.417969-35.023438-12.417969-48.359376.003906l-222.527343 207.433594c-11.9375 11.132812-9.554688 21.652344-7.976563 25.660156 1.578125 4.003906 7.011719 13.320313 23.335938 13.320313h35.324218v187.25c0 18.792969 15.285157 34.078125 34.074219 34.078125h321.125c18.789063 0 34.074219-15.285156 34.074219-34.078125v-187.25h38.101562c16.320313 0 21.75-9.316407 23.332032-13.320313 1.578125-4.007812 3.957031-14.527344-7.980469-25.664062zm-154.949219-173.699219c0-.808594 1.585938-2.351563 4.078125-2.351563h39.5c2.207031 0 4.070313 1.863282 4.070313 4.070313v71.957031l-47.648438-44.417968zm-54.492187 404.011719h-74.523438v-106.417969c0-2.332031 1.542969-4.078125 2.921875-4.078125h68.683594c1.378906 0 2.917969 1.746094 2.917969 4.078125zm140.988281-221.328125c-3.980469 0-7.792969 1.578125-10.609375 4.394531-2.8125 2.8125-4.394531 6.625-4.394531 10.605469l.003906 202.25c0 2.210937-1.867188 4.078125-4.074219 4.078125h-91.914062v-106.417969c0-18.789063-14.765625-34.078125-32.917969-34.078125h-68.683594c-18.152344 0-32.921875 15.289062-32.921875 34.078125v106.417969h-94.6875c-2.207031 0-4.070312-1.867188-4.070312-4.078125v-202.25c0-8.285157-6.71875-15-15.003907-15h-31.316406l208.609375-194.464844c1.917969-1.785156 5.542969-1.785156 7.460938 0l-.003907-.003906 139.160157 129.722656c.78125.9375 1.6875 1.769531 2.671875 2.492187l66.78125 62.253907zm0 0"/><path d="m255.757812 183.695312c-.15625 0-.316406 0-.476562.003907-17.367188.132812-33.222656 7.707031-43.5 20.773437-5.121094 6.515625-3.992188 15.945313 2.519531 21.066406 2.75 2.160157 6.019531 3.207032 9.261719 3.207032 4.445312 0 8.84375-1.964844 11.800781-5.726563 4.609375-5.859375 11.953125-9.257812 20.152344-9.320312 8.4375-.0625 16.382813 3.484375 21.265625 9.5 5.21875 6.433593 14.664062 7.417969 21.097656 2.195312 6.433594-5.21875 7.417969-14.667969 2.195313-21.101562-10.636719-13.105469-26.765625-20.597657-44.316407-20.597657zm0 0"/><path d="m254.820312 131.871094c-27.976562.203125-53.324218 11.871094-69.550781 32.007812-5.199219 6.449219-4.183593 15.894532 2.269531 21.089844 2.773438 2.234375 6.097657 3.320312 9.402344 3.320312 4.382813 0 8.726563-1.910156 11.6875-5.585937 10.558594-13.101563 27.472656-20.695313 46.410156-20.832031.171876-.003906.34375-.003906.515626-.003906 19.117187 0 37.015624 7.828124 47.953124 21.003906 5.292969 6.375 14.75 7.25 21.125 1.957031 6.375-5.289063 7.25-14.75 1.957032-21.121094-16.722656-20.144531-43.53125-32.011719-71.769532-31.835937zm0 0"/><path d="m256.019531 233.917969c-9.710937 0-17.609375 7.5625-17.609375 16.882812 0 9.324219 7.898438 16.910157 17.609375 16.910157 9.703125 0 17.570313-7.585938 17.570313-16.910157 0-9.320312-7.867188-16.882812-17.570313-16.882812zm0 0"/>
</svg>
