<?xml version="1.0" encoding="UTF-8" standalone="no"?>
<!DOCTYPE svg PUBLIC "-//W3C//DTD SVG 1.1//EN" "http://www.w3.org/Graphics/SVG/1.1/DTD/svg11.dtd">
<svg fill="#FFA715"
version="1.1" xmlns="http://www.w3.org/2000/svg" xmlns:xlink="http://www.w3.org/1999/xlink"
preserveAspectRatio="xMidYMid meet" viewBox="0 0 407.601 407.601">
<g>
  <path d="M168.54 108.67L168.54 212.55L121.88 212.55L121.88 108.67L168.54 108.67ZM345.65 330C345.65 341.72
    336.12 351.26 324.4 351.26C300.02 351.26 104.97 351.26 80.59 351.26C68.85 351.26 59.32 341.72 59.32
    330C59.32 305.09 59.32 105.84 59.32 80.94C59.32 69.21 68.85 59.67 80.59 59.67C104.97 59.67 300.02 59.67
    324.4 59.67C336.12 59.67 345.65 69.21 345.65 80.94C345.65 130.75 345.65 305.09 345.65 330ZM197.09 87.39C188.78
    81.31 179.22 78.27 168.4 78.27C163.77 78.27 126.65 78.27 122.01 78.27C111.12 78.27 101.56 81.31 93.33
    87.39C85.11 93.47 80.99 100.56 80.99 108.67C80.99 119.08 80.99 202.35 80.99 212.76C80.99 220.86 85.08 227.91
    93.26 233.92C101.44 239.94 110.98 242.94 121.88 242.94C121.95 242.94 122.27 242.94 122.86 242.94L139.11
    269.08L184.23 269.08C175.07 253.33 169.99 244.58 168.97 242.83C179.77 242.83 189.24 239.84 197.36 233.82C205.5
    227.81 209.58 220.76 209.58 212.65C209.58 205.72 209.58 171.06 209.58 108.67C206.8 98.53 202.64 91.44 197.09
    87.39ZM402.51 370.73C402.51 391.84 385.39 408.96 364.28 408.96C331.92 408.96 73.05 408.96 40.69 408.96C19.58
    408.96 2.46 391.84 2.46 370.73C2.46 337.68 2.46 73.24 2.46 40.18C2.46 19.08 19.58 1.96 40.69 1.96C73.05 1.96
    331.92 1.96 364.28 1.96C385.39 1.96 402.51 19.08 402.51 40.18C402.51 106.29 402.51 337.68 402.51 370.73ZM324.4
    44.6C300.01 44.6 104.97 44.6 80.59 44.6C60.55 44.6 44.24 60.9 44.24 80.94C44.24 105.84 44.24 305.09 44.24
    330C44.24 350.02 60.54 366.33 80.59 366.33C104.97 366.33 300.02 366.33 324.4 366.33C344.42 366.33 360.73 350.03
    360.73 330C360.73 313.39 360.73 230.37 360.73 80.94C349.86 56.71 337.75 44.6 324.4 44.6Z">
  </path>
  <path d="M121.76 242.95L187.26 242.95L187.26 270.07L121.76 270.07L121.76 242.95Z"></path>
</g>
</svg>
